<svg xmlns="http://www.w3.org/2000/svg" viewBox="0 0 32 32">
<path fill="currentColor" d="M 11.02 16.51 L 12.30 16.60 L 14.51 16.60 L 11.02 17.28 L 11.96 17.36 L 11.96 17.70 L 12.04 17.96 L 11.28 18.72 L 12.21 18.64 L 12.38 18.89 L 11.70 19.91 L 15.28 16.85 L 12.04 20.77 L 12.30 21.28 L 12.55 21.70 L 13.57 20.60 L 13.15 22.64 L 13.49 23.06 L 14.43 21.28 L 14.34 24.00 L 15.02 21.62 L 15.19 24.68 L 15.62 17.02 L 16.04 25.28 L 16.55 25.62 L 17.06 25.96 L 17.49 26.13 L 18.00 26.38 L 15.79 17.11 L 18.94 26.89 L 19.45 27.15 L 17.91 22.21 L 20.47 27.66 L 21.06 28.00 L 18.51 22.21 L 22.09 28.60 L 22.68 29.02 L 23.28 29.53 L 23.96 30.21 L 24.55 30.98 L 24.89 31.32 L 25.66 32.00 L 25.83 31.57 L 25.83 31.06 L 25.74 30.47 L 20.13 22.55 L 25.40 29.28 L 25.23 28.68 L 20.64 22.72 L 20.89 22.89 L 24.72 27.23 L 21.32 23.06 L 21.57 23.23 L 23.96 25.79 L 23.45 25.11 L 22.43 23.91 L 23.11 24.60 L 21.66 21.70 L 21.15 21.19 L 22.26 21.96 L 17.32 17.87 L 17.57 18.04 L 17.49 17.96 L 19.19 19.23 L 18.34 18.55 L 22.17 21.02 L 21.91 20.26 L 21.66 19.49 L 21.32 18.72 L 20.98 17.96 L 20.55 17.19 L 20.04 16.43 L 19.45 15.66 L 18.68 14.98 L 17.91 14.64 L 17.15 14.55 L 16.38 14.81 L 16.13 8.43 L 16.13 7.66 L 15.96 8.60 L 15.79 6.55 L 15.45 6.04 L 15.02 5.62 L 14.60 5.19 L 14.68 9.28 L 13.66 4.60 L 13.15 4.26 L 15.36 15.40 L 13.74 9.53 L 11.62 3.32 L 11.11 3.06 L 10.60 2.72 L 10.00 2.30 L 12.81 9.87 L 8.81 1.45 L 8.21 1.02 L 7.53 0.51 L 6.85 0.00 L 12.21 10.38 L 8.64 4.09 L 8.81 4.43 L 7.87 2.81 L 8.04 3.15 L 7.53 2.30 L 9.49 5.79 L 6.17 0.09 L 6.77 1.19 L 9.74 6.38 L 10.00 7.06 L 10.26 7.74 L 15.02 15.57 L 10.60 9.02 L 10.60 9.36 L 10.77 9.96 L 11.87 11.74 L 11.87 12.00 L 10.85 11.15 L 10.94 11.57 L 14.77 15.66 L 12.38 13.53 L 10.94 12.51 L 12.81 14.30 L 13.06 14.64 L 13.40 14.98 L 13.91 15.40 L 10.94 14.04 L 10.94 14.81 L 10.94 15.57 L 10.94 16.26 L 13.23 16.43 Z"/>
</svg>